<svg width="13" height="12" viewBox="0 0 13 12" fill="none" xmlns="http://www.w3.org/2000/svg">
<path d="M4.95505 10.335C4.86005 10.335 4.76505 10.3 4.69005 10.225C4.54505 10.08 4.54505 9.84001 4.69005 9.69501L7.95005 6.43501C8.19005 6.19501 8.19005 5.80501 7.95005 5.56501L4.69005 2.30501C4.54505 2.16001 4.54505 1.92001 4.69005 1.77501C4.83505 1.63001 5.07505 1.63001 5.22005 1.77501L8.48005 5.03501C8.73505 5.29001 8.88005 5.63501 8.88005 6.00001C8.88005 6.36501 8.74005 6.71001 8.48005 6.96501L5.22005 10.225C5.14505 10.295 5.05005 10.335 4.95505 10.335Z" fill="#5F6980"/>
</svg>
