<svg width="44" height="44" viewBox="0 0 44 44" fill="none" xmlns="http://www.w3.org/2000/svg">
<path d="M0 22C0 9.84974 9.84974 0 22 0C34.1503 0 44 9.84974 44 22C44 34.1503 34.1503 44 22 44C9.84974 44 0 34.1503 0 22Z" fill="#F8F7FB"/>
<path d="M22 31.25C21.81 31.25 21.62 31.18 21.47 31.03L15.4 24.96C15.11 24.67 15.11 24.19 15.4 23.9C15.69 23.61 16.17 23.61 16.46 23.9L22 29.44L27.54 23.9C27.83 23.61 28.31 23.61 28.6 23.9C28.89 24.19 28.89 24.67 28.6 24.96L22.53 31.03C22.38 31.18 22.19 31.25 22 31.25Z" fill="#686A74"/>
<path d="M22 31.08C21.59 31.08 21.25 30.74 21.25 30.33V13.5C21.25 13.09 21.59 12.75 22 12.75C22.41 12.75 22.75 13.09 22.75 13.5V30.33C22.75 30.74 22.41 31.08 22 31.08Z" fill="#686A74"/>
</svg>
