<svg width="44" height="44" viewBox="0 0 44 44" fill="none" xmlns="http://www.w3.org/2000/svg">
<path d="M0 22C0 9.84974 9.84974 0 22 0C34.1503 0 44 9.84974 44 22C44 34.1503 34.1503 44 22 44C9.84974 44 0 34.1503 0 22Z" fill="#F8F7FB"/>
<path d="M28.07 20.3199C27.88 20.3199 27.69 20.2499 27.54 20.0999L22 14.5599L16.46 20.0999C16.17 20.3899 15.69 20.3899 15.4 20.0999C15.11 19.8099 15.11 19.3299 15.4 19.0399L21.47 12.9699C21.76 12.6799 22.24 12.6799 22.53 12.9699L28.6 19.0399C28.89 19.3299 28.89 19.8099 28.6 20.0999C28.46 20.2499 28.26 20.3199 28.07 20.3199Z" fill="#686A74"/>
<path d="M22 31.2499C21.59 31.2499 21.25 30.9099 21.25 30.4999V13.6699C21.25 13.2599 21.59 12.9199 22 12.9199C22.41 12.9199 22.75 13.2599 22.75 13.6699V30.4999C22.75 30.9099 22.41 31.2499 22 31.2499Z" fill="#686A74"/>
</svg>
